<svg xmlns="http://www.w3.org/2000/svg" viewBox="0 0 24 24"><path fill-rule="evenodd" d="M15 14.5V16h-.25A1.75 1.75 0 0 0 13 17.75v4.5c0 .966.783 1.75 1.75 1.75h7.5A1.75 1.75 0 0 0 24 22.25v-4.5A1.75 1.75 0 0 0 22.25 16H22v-1.5a3.5 3.5 0 1 0-7 0m3.5-2a2 2 0 0 0-2 2V16h4v-1.5a2 2 0 0 0-2-2"/><path fill-rule="evenodd" d="M11.75 22.5a.75.75 0 0 0 0-1.5A1.75 1.75 0 0 1 10 19.25c0-1 .783-1.75 1.75-1.75.5 0 .75-.5.75-1v-3.75h1.25a.75.75 0 0 0 0-1.5h-5C7.507 11 6.5 9.993 6.5 8.75v-.839a3.25 3.25 0 1 0-1.5 0v.839a3.75 3.75 0 0 0 3.75 3.75h2.5v3.587a3.25 3.25 0 0 0-2.5 3.161c0 1.795 1.205 3.25 3.25 3.25zm-6-16a1.75 1.75 0 1 1 0-3.5 1.75 1.75 0 0 1 0 3.5M18.25 10.25A.75.75 0 0 0 19 9.5V7.587a3.25 3.25 0 0 0-.75-6.411C16.455 1.176 15 2.955 15 4.75a3.25 3.25 0 0 0 2.5 3.161V9.5c0 .414.336.75.75.75m0-3.75a1.75 1.75 0 1 1 0-3.5 1.75 1.75 0 0 1 0 3.5"/></svg>