<svg xmlns="http://www.w3.org/2000/svg" viewBox="0 0 24 24"><title>M5Stack</title><path d="M11.48 20.105q.13.05.26.08t.26.03.26-.03a1.4 1.4 0 0 0 .26-.08l10.16-4.35a.6.6 0 0 0 .15-.09.6.6 0 0 0 .11-.12.5.5 0 0 0 .07-.15.6.6 0 0 0 .03-.17v-6.39a.02.02 0 0 0-.01-.01.04.04 0 0 0-.02-.01c-.02 0-.04.01-.05.02-3.33 1.47-6.71 2.87-10.06 4.3a2.4 2.4 0 0 1-.45.14 2 2 0 0 1-.45.05 2 2 0 0 1-.45-.05 2.4 2.4 0 0 1-.45-.14c-3.6-1.54-7.2-3.1-10.81-4.63a.48.48 0 0 1-.25-.26.47.47 0 0 1 0-.36.48.48 0 0 1 .25-.25l10.81-4.62a2.4 2.4 0 0 1 .45-.15 2.2 2.2 0 0 1 .45-.04c.15 0 .3.01.45.04a2.4 2.4 0 0 1 .45.15l8.41 3.59a.7.7 0 0 1 .2.13c.06.06.11.12.13.18.02.07.03.14-.01.22a.4.4 0 0 1-.07.11c-.12.12-.28.17-.46.17-.26 0-.54-.09-.68-.15l-7.9-3.38a1.4 1.4 0 0 0-.26-.08 1.3 1.3 0 0 0-.26-.03c-.17 0-.35.04-.52.11L1.8 8.025a.05.05 0 0 0-.02.02.05.05 0 0 0 0 .03v.02a.05.05 0 0 0 .02.02l9.68 4.14q.13.06.26.08a1.3 1.3 0 0 0 .52 0 1.4 1.4 0 0 0 .26-.08l10.81-4.62a.48.48 0 0 1 .37-.01.48.48 0 0 1 .29.35q.01.04.01.08v7.17c0 .15-.02.3-.06.44a1.5 1.5 0 0 1-.19.4 1.5 1.5 0 0 1-.3.33 1.6 1.6 0 0 1-.39.24l-10.16 4.34a2.4 2.4 0 0 1-.45.15 2.2 2.2 0 0 1-.45.05c-.15 0-.3-.02-.45-.05a2.4 2.4 0 0 1-.45-.15L.94 16.635a1.6 1.6 0 0 1-.39-.24 1.5 1.5 0 0 1-.3-.33 1.5 1.5 0 0 1-.19-.4 1.5 1.5 0 0 1-.06-.44v-4.87c0-.13.05-.25.14-.34a.48.48 0 0 1 .34-.14c.14 0 .26.05.35.14a.47.47 0 0 1 .14.34v4.87c0 .06 0 .12.02.17a.5.5 0 0 0 .07.15.6.6 0 0 0 .11.12.6.6 0 0 0 .15.09zm.21-12.04-2.81 1.2a.78.78 0 0 1-.73-.01l-2.31-.99a.37.37 0 0 1-.2-.19c-.08-.19.01-.41.2-.49l5.44-2.32c.23-.1.62-.17.78.07.1.19.08.36-.19.48l-4.83 2.07s-.13.04 0 .08l1.26.54.03.01c.05.03.2.07.36.02l3.49-1.49c.83-.34 1.26-.59 2.21-.55.83.06 2.23.51 2.78 1.13.16.18.26.37.28.56a.8.8 0 0 1-.18.62c-.12.14-.29.26-.52.35l-4.26 1.83a.386.386 0 0 1-.5-.2c-.14-.34.18-.53.37-.61l3.72-1.55c.22-.1.56-.34.39-.54-.41-.46-1.51-.82-2.13-.86-.92-.06-1.8.48-2.65.84"/></svg>